<?xml version="1.0" encoding="utf-8"?>
<!-- Generator: Adobe Illustrator 20.1.0, SVG Export Plug-In . SVG Version: 6.00 Build 0)  -->
<svg version="1.1" id="Layer_1" xmlns="http://www.w3.org/2000/svg" xmlns:xlink="http://www.w3.org/1999/xlink" x="0px" y="0px"
	 viewBox="0 0 743 319" style="enable-background:new 0 0 743 319;" xml:space="preserve">
<style type="text/css">
	.st0{fill:#EF3E42;}
	.st1{fill:#FFFFFF;}
</style>
<rect x="0" y="1.3" class="st0" width="743" height="317.7"/>
<path class="st1" d="M83.9,291.9c-1.9,1-5.7,1.9-10.6,1.9c-11.3,0-19.8-7.2-19.8-20.4c0-12.7,8.5-21.1,21-21.1c5,0,8.2,1.1,9.6,1.8
	l-1.3,4.2c-1.9-1-4.7-1.7-8.1-1.7c-9.4,0-15.7,6-15.7,16.6c0,9.9,5.7,16.2,15.4,16.2c3.2,0,6.4-0.7,8.5-1.7L83.9,291.9z"/>
<rect x="90.4" y="253" class="st1" width="5.3" height="40.2"/>
<path class="st1" d="M109.9,253v23.9c0,9,4,12.8,9.4,12.8c5.9,0,9.8-3.9,9.8-12.8V253h5.2v23.5c0,12.4-6.5,17.4-15.2,17.4
	c-8.2,0-14.4-4.7-14.4-17.2V253H109.9z"/>
<path class="st1" d="M143.3,253.5c3.2-0.5,6.9-0.9,11-0.9c7.5,0,12.8,1.8,16.3,5c3.6,3.3,5.7,7.9,5.7,14.4c0,6.6-2.1,11.9-5.8,15.6
	c-3.8,3.8-10,5.8-17.8,5.8c-3.8,0-6.8-0.2-9.4-0.5V253.5z M148.5,289.1c1.3,0.2,3.2,0.2,5.3,0.2c11.2,0,17.1-6.2,17.1-17.1
	c0.1-9.5-5.3-15.5-16.3-15.5c-2.7,0-4.7,0.2-6.1,0.5V289.1z"/>
<path class="st1" d="M188.8,280.5l-4.2,12.7h-5.4L193,253h6.2l13.7,40.2h-5.6l-4.3-12.7H188.8z M202,276.5l-4-11.6
	c-0.9-2.6-1.5-5-2.1-7.3h-0.1c-0.6,2.3-1.2,4.8-2,7.3l-3.9,11.6H202z"/>
<path class="st1" d="M218.8,253.5c3.2-0.5,6.9-0.9,11-0.9c7.5,0,12.8,1.8,16.3,5c3.6,3.3,5.7,7.9,5.7,14.4c0,6.6-2.1,11.9-5.8,15.6
	c-3.8,3.8-10,5.8-17.9,5.8c-3.8,0-6.8-0.2-9.4-0.5V253.5z M224,289.1c1.3,0.2,3.2,0.2,5.3,0.2c11.2,0,17.1-6.2,17.1-17.1
	c0.1-9.5-5.3-15.5-16.3-15.5c-2.7,0-4.7,0.2-6.1,0.5V289.1z"/>
<path class="st1" d="M271.2,253.5c3.2-0.5,6.9-0.9,11-0.9c7.5,0,12.8,1.8,16.3,5c3.6,3.3,5.7,7.9,5.7,14.4c0,6.6-2.1,11.9-5.8,15.6
	c-3.8,3.8-10,5.8-17.9,5.8c-3.8,0-6.8-0.2-9.4-0.5V253.5z M276.4,289.1c1.3,0.2,3.2,0.2,5.3,0.2c11.2,0,17.1-6.2,17.1-17.1
	c0.1-9.5-5.3-15.5-16.3-15.5c-2.7,0-4.7,0.2-6.1,0.5V289.1z"/>
<polygon class="st1" points="331.8,274.3 316.2,274.3 316.2,288.8 333.7,288.8 333.7,293.2 311,293.2 311,253 332.8,253 
	332.8,257.3 316.2,257.3 316.2,270 331.8,270 "/>
<path class="st1" d="M387,275.5c-0.3-5.6-0.7-12.4-0.7-17.4h-0.1c-1.4,4.7-3,9.7-5.1,15.3L374,293h-3.9l-6.6-19.2
	c-1.9-5.7-3.5-10.9-4.6-15.6h-0.1c-0.1,5-0.4,11.7-0.8,17.8l-1.1,17.3h-5l2.8-40.2h6.6l6.9,19.5c1.7,5,3,9.4,4.1,13.6h0.1
	c1.1-4.1,2.5-8.5,4.3-13.6l7.2-19.5h6.6l2.5,40.2h-5.1L387,275.5z"/>
<path class="st1" d="M421.8,274.3h-15.6v14.5h17.4v4.4H401V253h21.8v4.4h-16.5V270h15.6V274.3z M420.9,243.8l-7.6,7H409l5.5-7H420.9
	z"/>
<path class="st1" d="M452.5,293.2l-5.2-8.9c-2.1-3.4-3.3-5.6-4.6-7.9h-0.1c-1.1,2.3-2.3,4.5-4.4,8l-4.8,8.8h-6l12.3-20.4L427.9,253
	h6l5.3,9.4c1.5,2.6,2.6,4.7,3.7,6.8h0.2c1.1-2.4,2.2-4.2,3.6-6.8l5.4-9.4h6L446,272.5l12.5,20.7H452.5z"/>
<rect x="464.5" y="253" class="st1" width="5.3" height="40.2"/>
<path class="st1" d="M506.9,291.9c-1.9,1-5.7,1.9-10.6,1.9c-11.3,0-19.8-7.2-19.8-20.4c0-12.7,8.5-21.1,21-21.1c5,0,8.2,1.1,9.6,1.8
	l-1.3,4.2c-1.9-1-4.7-1.7-8.1-1.7c-9.4,0-15.7,6-15.7,16.6c0,9.9,5.7,16.2,15.4,16.2c3.2,0,6.4-0.7,8.5-1.7L506.9,291.9z"/>
<path class="st1" d="M546.6,272.7c0,13.8-8.4,21.2-18.7,21.2c-10.7,0-18.1-8.3-18.1-20.5c0-12.8,7.9-21.1,18.6-21.1
	C539.5,252.2,546.6,260.7,546.6,272.7 M515.3,273.3c0,8.6,4.7,16.4,12.9,16.4c8.2,0,12.9-7.6,12.9-16.7c0-8.1-4.2-16.4-12.8-16.4
	C519.6,256.5,515.3,264.5,515.3,273.3"/>
<path class="st1" d="M96.3,223.8H42.4V218H44c2.9,0,5.3-0.1,7-0.2c1.5-0.1,2.7-0.5,3.5-1.1c0.7-0.5,1.2-1.5,1.5-2.8
	c0.3-1.6,0.5-4,0.5-7V61c0-3-0.2-5.4-0.5-7c-0.3-1.3-0.8-2.3-1.5-2.8c-0.8-0.6-2-1-3.5-1.1c-1.8-0.2-4.1-0.3-7-0.3h-1.6V44h53.8v5.8
	h-1.6c-2.9,0-5.2,0.1-7,0.3c-1.5,0.1-2.7,0.5-3.5,1.1c-0.7,0.5-1.2,1.5-1.5,2.8c-0.3,1.6-0.5,4-0.5,7v145.8c0,3,0.2,5.4,0.5,7
	c0.3,1.3,0.8,2.3,1.5,2.8c0.8,0.6,2,1,3.5,1.1c1.8,0.2,4.1,0.3,7,0.3h1.6V223.8z"/>
<path class="st1" d="M181,223.8h-68.1V218h1.6c2.8,0,5-0.1,6.7-0.2c1.5-0.1,2.7-0.5,3.5-1.1c0.7-0.5,1.3-1.5,1.6-2.9
	c0.4-1.6,0.6-3.9,0.6-6.9V61c0-3-0.2-5.3-0.6-6.9c-0.3-1.3-0.9-2.3-1.7-2.9c-0.9-0.6-2.1-1-3.7-1.1c-1.8-0.2-4-0.3-6.8-0.3h-1.6V44
	h62.9c7.7,0,15.4,0.7,23,2c7.6,1.3,14.5,3.8,20.5,7.2c6,3.5,11,8.4,14.8,14.5c3.8,6.1,5.7,14,5.7,23.3c0,11.9-3.2,21.1-9.6,27.2
	c-5,4.9-11.7,8.7-20,11.3c3.5,1,7,2.2,10.2,3.7c5.3,2.4,9.9,5.5,13.9,9.3c4,3.8,7.2,8.3,9.5,13.4c2.3,5.2,3.5,11,3.5,17.5
	c0,9.5-2,17.5-5.8,23.9c-3.9,6.4-9,11.6-15.3,15.5c-6.2,3.9-13.4,6.7-21.3,8.4C196.8,223,188.9,223.8,181,223.8 M152.3,203.6
	c0.7,1.3,1.7,2.2,3,2.9c1.6,0.8,3.3,1.3,5.2,1.5c2,0.3,4,0.4,6.1,0.4h5.5c5.8,0,11.7-0.5,17.5-1.5c5.7-1,10.9-2.9,15.4-5.5
	c4.4-2.6,8.1-6.2,10.8-10.6c2.7-4.3,4.1-10,4.1-16.8c0-7.8-1.7-14-5-18.6c-3.4-4.6-7.8-8.2-12.9-10.7c-5.3-2.5-11.4-4.2-18-5.1
	c-6.8-0.9-13.4-1.3-19.7-1.3h-11.7V203.6z M152.6,122H176c5.2,0,10.3-0.5,15-1.7c4.6-1.1,8.8-2.9,12.2-5.3c3.4-2.4,6.1-5.7,8.1-9.6
	c2-3.9,3-8.9,3-14.7c0-5.9-1.2-11-3.6-14.9c-2.4-4-5.5-7.3-9.3-9.6c-3.8-2.4-8.3-4.1-13.3-5.1c-5.1-1-10.3-1.5-15.6-1.5
	c-1.4,0-3.2,0-5.3-0.1c-2-0.1-4,0-6.1,0.1c-2,0.2-3.8,0.5-5.5,1c-1.3,0.4-2.3,0.9-3.1,1.7V122z"/>
<path class="st1" d="M381,223.8H259.2V218h1.6c6.4,0,8.4-1.1,9-1.7c0.6-0.6,1.6-2.8,1.6-9.5V61c0-6.7-1-8.8-1.6-9.5
	c-0.5-0.5-2.3-1.7-9-1.7h-1.6V44h119.5l0.3,30.1h-6.7l-0.2-1.4c-0.8-6-2.5-9.6-5.2-10.9c-3-1.4-7.5-2.1-13.3-2.1h-52.7
	c-2.9,0-3.7,0.3-3.9,0.4c0.1,0-0.2,0.9-0.2,4v58.1h51.3c2.7,0,5.1-0.1,7.1-0.4c1.8-0.2,3.3-0.7,4.4-1.4c1-0.7,1.8-1.7,2.4-3.2
	c0.6-1.6,1.1-3.8,1.5-6.6l0.2-1.4h6.4v42.6h-6.4l-0.2-1.4c-0.3-3-0.8-5.3-1.5-6.9c-0.6-1.4-1.4-2.6-2.4-3.3
	c-1.1-0.8-2.5-1.3-4.2-1.5c-1.9-0.2-4.4-0.4-7.2-0.4h-51.3v66.5c0,1.6,0.6,2.1,0.8,2.3c0.7,0.6,1.6,1,2.6,1.1
	c1.2,0.2,2.5,0.2,3.9,0.1c1.5-0.1,2.8-0.1,3.9-0.1h43c4.1,0,7.7-0.2,10.6-0.6c2.8-0.4,5.4-1.3,7.6-2.5c2.3-1.3,4.3-3,6.1-5.2
	c1.8-2.2,3.6-5.3,5.2-9.1l0.4-1h7.2L381,223.8z"/>
<path class="st1" d="M541.9,223.8H510l-0.4-0.9c-4.1-9.1-8.3-17.5-12.5-24.8c-4.1-7.3-8.6-14.2-13.4-20.6
	c-4.8-6.4-10.1-12.5-15.8-18.4c-5.6-5.7-12-11.8-19-18l-16.6,0.2v65.4c0,2.9,0.2,5.1,0.5,6.7c0.3,1.4,0.8,2.4,1.4,3.1
	c0.6,0.6,1.6,1,2.9,1.1c1.7,0.2,3.9,0.2,6.6,0.2h1.6v5.8h-50.7V218h1.6c2.5,0,4.6-0.1,6.1-0.4c1.3-0.2,2.3-0.6,2.9-1.2
	c0.6-0.6,1-1.6,1.2-2.9c0.2-1.6,0.4-3.8,0.4-6.7V61c0-2.7-0.1-4.9-0.4-6.5c-0.2-1.4-0.6-2.4-1.2-3c-0.6-0.6-1.6-1-2.9-1.2
	c-1.6-0.2-3.6-0.4-6.1-0.4h-1.6V44h64c7.7,0,15.3,0.8,22.4,2.5c7.2,1.7,13.7,4.4,19.2,8.2c5.6,3.8,10.1,8.8,13.4,14.9
	c3.3,6.1,5,13.8,5,22.7c0,6.8-1.3,12.9-3.8,18.1c-2.5,5.2-6,9.6-10.3,13.1c-4.3,3.5-9.3,6.3-14.8,8.5c-4.4,1.7-9,3-13.8,3.9
	c3.9,3.3,7.1,6.1,9.6,8.5c3.2,3,6,5.9,8.3,8.6c2.4,2.7,4.7,5.5,7,8.4c2.3,2.9,4.9,6.2,8.1,10c3.5,4.4,6.9,9.4,10.1,15
	c3.1,5.5,6,10.6,8.8,15.4c2.6,4.7,5.1,8.8,7.4,12c1.9,2.8,3.7,4.3,5.2,4.3h1.6V223.8z M432.3,125.7h10.9c6.1,0,12.2-0.6,18.1-1.7
	c5.8-1.1,11.1-3,15.8-5.8c4.6-2.7,8.4-6.4,11.2-11.1c2.8-4.6,4.2-10.4,4.2-17.4c0-6.1-1.2-11.2-3.4-15.1c-2.3-3.9-5.4-7-9.2-9.2
	c-3.9-2.2-8.4-3.8-13.4-4.6c-5.1-0.8-10.4-1.3-15.6-1.3h-5.2c-1.7,0-3.5,0.1-5.3,0.2c-1.7,0.2-3.4,0.6-4.9,1.2
	c-1.2,0.5-2.2,1.2-3.1,2V125.7z"/>
<path class="st1" d="M617.2,227c-13.6,0-25.7-2.5-36.2-7.3c-10.4-4.9-19.3-11.6-26.5-20c-7.1-8.4-12.6-18.3-16.2-29.6
	c-3.6-11.2-5.4-23.3-5.4-36c0-15.6,2.4-29.4,7.2-41c4.7-11.6,11.2-21.5,19.1-29.3c8-7.9,17.1-13.8,27.1-17.7
	c9.8-3.8,20-5.7,30.2-5.7l0.7,0c10.4,0.1,20.8,2.1,30.8,6c10.1,3.9,19.2,9.8,27.2,17.6c8,7.8,14.4,17.6,19.2,29.4
	c4.8,11.7,7.2,25.5,7.2,40.9c0,12.6-1.9,24.7-5.6,35.9c-3.7,11.2-9.2,21.1-16.3,29.6c-7.2,8.5-16.1,15.2-26.5,20.1
	C642.7,224.5,630.6,227,617.2,227 M617.2,56.1c-10.6,0-19.6,2.4-26.8,7c-7.2,4.7-13.2,10.9-17.8,18.3c-4.6,7.5-7.9,15.9-10,25.1
	c-2.1,9.2-3.1,18.5-3.1,27.5c0,9.1,1,18.4,3.1,27.7c2,9.3,5.4,17.7,10,25.1c4.6,7.3,10.5,13.4,17.7,18c7.2,4.6,16.2,6.9,26.8,6.9
	c10.4,0,19.4-2.3,26.7-6.9c7.3-4.6,13.3-10.7,17.9-18.1c4.6-7.5,7.9-15.9,10-25.1c2.1-9.2,3.1-18.5,3.1-27.6
	c0-8.9-1.1-18.1-3.2-27.4c-2.1-9.3-5.5-17.7-10.1-25.2c-4.5-7.4-10.5-13.5-17.8-18.3C636.5,58.5,627.6,56.1,617.2,56.1"/>
</svg>
